<svg
  enable-background="new 0 0 32 32"
  height="32"
  viewBox="0 0 32 32"
  width="32"
  xmlns="http://www.w3.org/2000/svg"
>
  <g fill="#1c1c1c">
    <path
      d="m30 5h-14v-1c0-1.105-.895-2-2-2h-12c-1.105 0-2 .895-2 2v1 1 22c0 1.105.895 2 2 2h14v-1h-13c-1.105 0-2-.895-2-2v-17h30v6h1v-9c0-1.105-.895-2-2-2zm1 4h-30v-3-1c0-1.105.895-2 2-2h10c1.105 0 2 .895 2 2v1h1 13c1.105 0 2 .895 2 2z"
    />
    <path
      d="m24.854 16.146c-.049-.049-.108-.085-.174-.11-.01-.004-.021-.003-.032-.006-.047-.015-.095-.03-.148-.03-.009 0-.016.005-.025.005 0 0 0 0-.001 0-.136-.007-.275.037-.379.142l-4.95 4.95c-.195.195-.195.512 0 .707s.512.195.707 0l4.148-4.147v13.843c0 .276.224.5.5.5s.5-.224.5-.5v-13.793l4.096 4.096c.195.195.512.195.707 0s.195-.512 0-.707z"
    />
  </g>
</svg>