<svg
  role="presentation"
  viewBox="0 0 20 20"
  xmlns="http://www.w3.org/2000/svg"
  class="svg-icon folder-icon left-icon"
>
  <path
    fill="#2563EB"
    fill-rule="evenodd"
    clip-rule="evenodd"
    d="M10 5L8.43933 3.43935C8.15802 3.15804 7.77649 3 7.37869 3H4.5C3.11929 3 2 4.11929 2 5.5V14.5C2 15.8807 3.11929 17 4.5 17H15.5C16.8807 17 18 15.8807 18 14.5V7.5C18 6.11929 16.8807 5 15.5 5H10ZM3 6V5.5C3 4.67157 3.67157 4 4.5 4H7.37869C7.51129 4 7.63846 4.05267 7.73224 4.14645L8.58578 5L7.73224 5.85355C7.63846 5.94733 7.51129 6 7.37869 6H3ZM3 7V14.5C3 15.3284 3.67157 16 4.5 16H15.5C16.3284 16 17 15.3284 17 14.5V7.5C17 6.67157 16.3284 6 15.5 6H9L8.43933 6.56065C8.15802 6.84196 7.77649 7 7.37869 7H3Z"
  ></path>
</svg>