<svg
  version="1.1"
  xmlns="http://www.w3.org/2000/svg"
  xmlns:xlink="http://www.w3.org/1999/xlink"
  x="0px"
  y="0px"
  viewBox="0 0 256 256"
  enable-background="new 0 0 256 256"
  xml:space="preserve"
>
  <metadata> Svg Vector Icons : http://www.onlinewebfonts.com/icon </metadata>
  <g>
    <g>
      <path
        fill="#000000"
        d="M229.1,77.4c0,9.3-7.6,16.9-16.9,16.9h-33.7c-9.3,0-16.9-7.6-16.9-16.9V43.7c0-9.3,7.6-16.9,16.9-16.9h33.7c9.3,0,16.9,7.6,16.9,16.9V77.4L229.1,77.4z M212.3,10h-33.7c-18.6,0-33.7,15.1-33.7,33.7v33.7c0,18.6,15.1,33.7,33.7,33.7h33.7c18.6,0,33.7-15.1,33.7-33.7V43.7C246,25.1,230.9,10,212.3,10L212.3,10z M229.1,212.3c0,9.3-7.6,16.9-16.9,16.9h-33.7c-9.3,0-16.9-7.6-16.9-16.9v-33.7c0-9.3,7.6-16.9,16.9-16.9h33.7c9.3,0,16.9,7.6,16.9,16.9V212.3L229.1,212.3z M212.3,144.9h-33.7c-18.6,0-33.7,15.1-33.7,33.7v33.7c0,18.6,15.1,33.7,33.7,33.7h33.7c18.6,0,33.7-15.1,33.7-33.7v-33.7C246,160,230.9,144.9,212.3,144.9L212.3,144.9z M94.3,77.4c0,9.3-7.6,16.9-16.9,16.9H43.7c-9.3,0-16.9-7.6-16.9-16.9V43.7c0-9.3,7.6-16.9,16.9-16.9h33.7c9.3,0,16.9,7.6,16.9,16.9V77.4L94.3,77.4z M77.4,10H43.7C25.1,10,10,25.1,10,43.7v33.7c0,18.6,15.1,33.7,33.7,33.7h33.7c18.6,0,33.7-15.1,33.7-33.7V43.7C111.1,25.1,96,10,77.4,10L77.4,10z M94.3,212.3c0,9.3-7.6,16.9-16.9,16.9H43.7c-9.3,0-16.9-7.6-16.9-16.9v-33.7c0-9.3,7.6-16.9,16.9-16.9h33.7c9.3,0,16.9,7.6,16.9,16.9V212.3L94.3,212.3z M77.4,144.9H43.7C25.1,144.9,10,160,10,178.6v33.7c0,18.6,15.1,33.7,33.7,33.7h33.7c18.6,0,33.7-15.1,33.7-33.7v-33.7C111.1,160,96,144.9,77.4,144.9L77.4,144.9z"
      />
    </g>
  </g>
</svg>