<svg
  role="presentation"
  viewBox="0 0 20 20"
  xmlns="http://www.w3.org/2000/svg"
  class="svg-icon recent-icon left-icon"
>
  <path
    d="M3.50199 1.99609L3.59187 2.00415C3.79596 2.04119 3.95689 2.20213 3.99394 2.40622L4.00199 2.49609L4.00133 4.70762C5.16628 3.38448 6.75044 2.46588 8.54411 2.13344C12.8884 1.32827 17.0629 4.1973 17.868 8.54159C18.6732 12.8859 15.8042 17.0603 11.4599 17.8655C7.11557 18.6707 2.94104 15.8017 2.13587 11.4574C2.04916 10.9895 1.97832 10.1379 2.00614 9.47828C2.01777 9.20238 2.25086 8.98816 2.52676 8.99979C2.80265 9.01142 3.01688 9.24451 3.00525 9.52041C2.9808 10.1003 3.04545 10.8776 3.11913 11.2751C3.82365 15.0764 7.47637 17.5868 11.2776 16.8823C15.0789 16.1777 17.5893 12.5251 16.8848 8.72383C16.1803 4.92257 12.5276 2.41217 8.72635 3.11669C6.88719 3.45756 5.30109 4.50146 4.26039 5.99497L7 5.99609L7.08988 6.00415C7.32312 6.04649 7.5 6.25063 7.5 6.49609C7.5 6.74155 7.32312 6.9457 7.08988 6.98804L7 6.99609H3.50199L3.41212 6.98804C3.20803 6.95099 3.04709 6.79006 3.01005 6.58597L3.00199 6.49609V2.49609L3.01005 2.40622C3.04709 2.20213 3.20803 2.04119 3.41212 2.00415L3.50199 1.99609ZM9.50199 5.99609L9.59187 6.00415C9.79596 6.04119 9.95689 6.20213 9.99394 6.40622L10.002 6.49609V10H12.002L12.0919 10.0081C12.3251 10.0504 12.502 10.2545 12.502 10.5C12.502 10.7455 12.3251 10.9496 12.0919 10.9919L12.002 11H9.50199L9.41212 10.9919C9.20803 10.9549 9.04709 10.794 9.01005 10.5899L9.00199 10.5V6.49609L9.01005 6.40622C9.04709 6.20213 9.20803 6.04119 9.41212 6.00415L9.50199 5.99609Z"
  ></path>
</svg>