<svg
  role="presentation"
  viewBox="0 0 20 20"
  xmlns="http://www.w3.org/2000/svg"
  class="svg-icon recent-icon left-icon"
>
  <path
    d="M6.33594 18C6.08594 18 5.84635 17.9557 5.61719 17.8672C5.38802 17.7786 5.1849 17.6536 5.00781 17.4922C4.83073 17.3307 4.6849 17.1432 4.57031 16.9297C4.45573 16.7161 4.38281 16.4818 4.35156 16.2266L3.10156 5.38281C3.09635 5.34115 3.09375 5.30208 3.09375 5.26562C3.09375 5.22917 3.09115 5.1875 3.08594 5.14062C3.08594 4.83333 3.15104 4.54688 3.28125 4.28125C3.41146 4.01562 3.59635 3.78646 3.83594 3.59375L5.27344 2.4375C5.44531 2.30208 5.64062 2.19531 5.85938 2.11719C6.07812 2.03906 6.29948 2 6.52344 2H13.4766C13.6953 2 13.9141 2.03906 14.1328 2.11719C14.3516 2.19531 14.5495 2.30208 14.7266 2.4375L16.1641 3.59375C16.3984 3.78125 16.5833 4.01302 16.7188 4.28906C16.8542 4.5651 16.9219 4.85417 16.9219 5.15625V5.26562C16.9219 5.30208 16.9167 5.34115 16.9062 5.38281L15.6484 16.2266C15.6172 16.4766 15.5443 16.7083 15.4297 16.9219C15.3151 17.1354 15.1693 17.3229 14.9922 17.4844C14.8151 17.6458 14.6146 17.7708 14.3906 17.8594C14.1667 17.9479 13.9245 17.9948 13.6641 18H6.33594ZM4.92969 4H15.0781L14.1016 3.21875C13.9141 3.07292 13.7057 3 13.4766 3H6.52344C6.29427 3 6.08594 3.07292 5.89844 3.21875L4.92969 4ZM13.6641 17C13.9245 17 14.1458 16.9167 14.3281 16.75C14.5104 16.5833 14.6198 16.3724 14.6562 16.1172L15.9062 5.26562C15.9115 5.23958 15.9141 5.20312 15.9141 5.15625V5.07812C15.9141 5.05208 15.9115 5.02604 15.9062 5H4.09375C4.08854 5.02604 4.08594 5.05208 4.08594 5.07812C4.08594 5.10417 4.08594 5.13021 4.08594 5.15625C4.08594 5.20312 4.08854 5.23958 4.09375 5.26562L5.34375 16.1172C5.375 16.3776 5.48177 16.5885 5.66406 16.75C5.84635 16.9115 6.07031 16.9948 6.33594 17H13.6641ZM12.0469 10.5391L10.1641 10.3672L10.7031 9.96875L9.90625 8.42188L9.17969 9.85156L8.07812 9.29688L8.60156 8.26562C8.6849 8.08854 8.82292 8 9.01562 8H10.9219C11.1146 8 11.2552 8.08594 11.3438 8.25781L11.8047 9.13281L12.3047 8.75L12.0469 10.5391ZM7.90625 13.9922C7.81771 13.9922 7.74479 13.974 7.6875 13.9375C7.63021 13.901 7.57812 13.8568 7.53125 13.8047C7.48438 13.7526 7.44792 13.6901 7.42188 13.6172C7.39583 13.5443 7.35938 13.4766 7.3125 13.4141C7.26562 13.3307 7.21875 13.25 7.17188 13.1719C7.125 13.0938 7.07812 13.013 7.03125 12.9297C7.01562 12.9036 6.98958 12.8568 6.95312 12.7891C6.91667 12.7214 6.8776 12.6484 6.83594 12.5703C6.79427 12.4922 6.75781 12.4141 6.72656 12.3359C6.69531 12.2578 6.67969 12.1953 6.67969 12.1484C6.67969 12.0651 6.70052 11.9714 6.74219 11.8672C6.78385 11.763 6.83333 11.6562 6.89062 11.5469C6.94792 11.4375 7.01042 11.3359 7.07812 11.2422C7.14583 11.1484 7.19792 11.0703 7.23438 11.0078L6.67969 10.5703H8.38281L8.78906 12.2422L8.125 11.7188L7.64844 12.6797H9.23438V13.9922H7.90625ZM10.9609 14.5703L9.89062 13.1328L10.9609 11.8203V12.7109H12.3672L11.7891 11.6484L12.8438 11.0234C12.875 11.0911 12.9167 11.1719 12.9688 11.2656C13.0208 11.3594 13.0729 11.4557 13.125 11.5547C13.1771 11.6536 13.2214 11.75 13.2578 11.8438C13.2943 11.9375 13.3151 12.0156 13.3203 12.0781C13.3203 12.1198 13.3151 12.1562 13.3047 12.1875C13.2943 12.2188 13.2812 12.2526 13.2656 12.2891L12.5312 13.7422C12.4479 13.9089 12.3099 13.9922 12.1172 13.9922H10.9609V14.5703Z"
  ></path>
</svg>