<svg
  xmlns="http://www.w3.org/2000/svg"
  version="1.1"
  xmlns:xlink="http://www.w3.org/1999/xlink"
  width="512"
  height="512"
  x="0"
  y="0"
  viewBox="0 0 512 512"
  style="enable-background:new 0 0 512 512"
  xml:space="preserve"
  class=""
>
  <g>
    <path
      fill="#2563EB"
      d="m508.271 194.568-149.333-128c-3.146-2.708-7.583-3.323-11.396-1.594a10.665 10.665 0 0 0-6.208 9.688v74.813c-119.188 3.313-176.688 62.312-204.021 112.031-23.771 43.219-29.104 86.01-30.302 103.573a96.785 96.785 0 0 0-.344 8.219V373.638l.01.031V373.875s0 .021.01.031v.134c-.01.031.021.042.01.042v.093c0 .021.01.042.01.042v.103l.01.021v.082c.01.01.01.01.01.021v.062l.01.031v.072c.01.01.01.021.01.021v.031c.667 5.26 5.156 9.323 10.583 9.323 5.885 0 10.656-4.76 10.667-10.646v-.01c0-.542.01-1.865.104-3.885 4.656-88.698 168.521-108.823 213.229-112.667v73.875c0 4.167 2.427 7.948 6.208 9.688 3.802 1.729 8.229 1.125 11.396-1.594l149.333-128a10.648 10.648 0 0 0 3.729-8.094 10.628 10.628 0 0 0-3.725-8.083zM362.667 307.474v-62.146a10.62 10.62 0 0 0-3.302-7.708 10.616 10.616 0 0 0-7.365-2.958c-.156 0-.323 0-.49.01-7.51.344-142.177 7.281-208.521 64.323 21.948-57.885 75.969-128.333 208.958-128.333H352c2.833 0 5.542-1.125 7.542-3.125s3.125-4.708 3.125-7.542V97.849l122.281 104.812-122.281 104.813z"
      opacity="1"
      data-original="#000000"
      class=""
    ></path>
    <path
      fill="#2563EB"
      d="M437.333 303.047a10.66 10.66 0 0 0-10.667 10.667v91.615c0 11.76-9.573 21.333-21.333 21.333H42.667c-11.76 0-21.333-9.573-21.333-21.333V191.995c0-11.76 9.573-21.333 21.333-21.333h147.729c5.896 0 10.667-4.771 10.667-10.667s-4.771-10.667-10.667-10.667H42.667C19.135 149.329 0 168.464 0 191.995v213.333c0 23.531 19.135 42.667 42.667 42.667h362.667c23.531 0 42.667-19.135 42.667-42.667v-91.615a10.662 10.662 0 0 0-10.668-10.666z"
      opacity="1"
      data-original="#000000"
      class=""
    ></path>
  </g>
</svg>